<svg width="36" height="36" viewBox="0 0 36 36" fill="none" xmlns="http://www.w3.org/2000/svg">
<g clip-path="url(#clip0_1059_29964)">
<path opacity="0.942" fill-rule="evenodd" clip-rule="evenodd" d="M7.43174 -0.0351562C7.85357 -0.0351562 8.27541 -0.0351562 8.69724 -0.0351562C9.53944 0.185351 10.1957 0.66582 10.6658 1.40625C14.3451 3.49219 18.0245 5.57812 21.7038 7.66406C22.8748 8.35249 23.5661 9.37202 23.7779 10.7227C23.813 13.3241 23.8248 15.9256 23.813 18.5273C24.5712 18.5716 25.1102 18.9348 25.43 19.6172C27.6564 19.6406 29.8827 19.6641 32.1091 19.6875C32.8963 19.7952 33.4001 20.2288 33.6207 20.9883C33.6327 21.3654 33.6679 21.7405 33.7261 22.1133C34.3095 22.3802 34.6727 22.8255 34.8159 23.4492C34.8393 25.3242 34.8628 27.1992 34.8862 29.0742C35.436 29.6584 35.7992 30.3381 35.9759 31.1133C35.9759 31.6289 35.9759 32.1446 35.9759 32.6602C35.5307 34.418 34.4292 35.5196 32.6716 35.9648C27.1408 35.9648 21.6101 35.9648 16.0794 35.9648C14.0065 35.42 12.8816 34.0723 12.7047 31.9219C12.7212 30.8168 13.1079 29.8676 13.8647 29.0742C13.8881 28.5351 13.9116 27.9961 13.935 27.457C14.4471 24.8259 14.9862 22.2009 15.5521 19.582C15.9072 18.8242 16.5048 18.4726 17.3449 18.5273C17.3449 17.1445 17.3449 15.7617 17.3449 14.3789C15.9838 13.9196 15.433 12.9821 15.6927 11.5664C15.7465 11.3768 15.8285 11.2011 15.9388 11.0391C13.9584 9.05857 11.9782 7.07815 9.9979 5.09766C9.9276 5.16797 9.85729 5.23828 9.78698 5.30859C8.88088 10.312 7.97864 15.3159 7.08021 20.3203C7.35215 20.6158 7.59822 20.9322 7.81842 21.2695C8.10421 21.848 8.198 22.4574 8.09964 23.0977C7.98068 23.5924 7.80492 24.0611 7.57235 24.5039C7.71992 25.8906 7.89568 27.2734 8.09964 28.6523C8.25157 29.0033 8.43908 29.3315 8.66209 29.6367C9.43545 30.2695 10.2088 30.9023 10.9822 31.5352C11.0173 32.613 11.0291 33.6911 11.0173 34.7695C11.4158 34.7695 11.8141 34.7695 12.2125 34.7695C12.2125 35.168 12.2125 35.5664 12.2125 35.9648C9.91585 35.9648 7.61924 35.9648 5.32256 35.9648C4.72491 35.8188 4.16246 35.5727 3.63522 35.2266C2.4908 34.2463 1.47137 33.1565 0.576909 31.957C0.298776 31.4381 0.0995758 30.899 -0.0206909 30.3398C-0.0206909 29.7773 -0.0206909 29.2148 -0.0206909 28.6523C0.119247 27.9877 0.365317 27.3549 0.717521 26.7539C1.40886 25.9219 2.10021 25.0898 2.79155 24.2578C2.17593 23.2167 2.14078 22.1503 2.68609 21.0586C3.16474 20.3921 3.79749 19.9468 4.58435 19.7227C4.78903 13.9567 4.99995 8.19106 5.2171 2.42578C5.45276 1.14739 6.19098 0.32708 7.43174 -0.0351562ZM7.78326 1.16016C8.99077 1.11409 9.67035 1.68831 9.82214 2.88281C9.56144 4.25422 8.76466 4.76985 7.43174 4.42969C6.53081 3.92939 6.23787 3.1911 6.55291 2.21484C6.81884 1.69009 7.22897 1.33853 7.78326 1.16016ZM11.0173 3.05859C14.3996 4.94927 17.7743 6.85943 21.1414 8.78906C22.0258 9.35016 22.5062 10.1587 22.5827 11.2148C22.6178 13.6522 22.6296 16.0898 22.6178 18.5273C21.282 18.5273 19.9462 18.5273 18.6104 18.5273C18.6104 17.1445 18.6104 15.7617 18.6104 14.3789C19.7019 14.0483 20.2879 13.31 20.368 12.1641C20.242 10.9368 19.5858 10.1633 18.3995 9.84375C18.1182 9.79685 17.837 9.79685 17.5558 9.84375C17.2904 9.91709 17.0326 9.9874 16.7824 10.0547C14.8021 8.07419 12.8219 6.09375 10.8416 4.11328C10.9099 3.76815 10.9685 3.41659 11.0173 3.05859ZM6.30684 5.16797C6.92591 5.63941 7.62894 5.85035 8.41602 5.80078C7.59934 10.4667 6.76741 15.1308 5.92016 19.793C5.85382 19.7393 5.81867 19.669 5.8147 19.582C6.01149 14.7793 6.17554 9.97467 6.30684 5.16797ZM17.9073 11.0039C18.9396 11.1941 19.2794 11.78 18.9268 12.7617C18.294 13.4179 17.6612 13.4179 17.0285 12.7617C16.686 11.853 16.9789 11.2671 17.9073 11.0039ZM17.1339 19.7227C19.3604 19.7109 21.5868 19.7227 23.813 19.7578C23.955 19.7895 24.0838 19.848 24.1997 19.9336C24.3042 22.5525 24.3394 25.1776 24.3052 27.8086C21.61 27.7969 18.9149 27.8086 16.22 27.8438C15.8515 27.8949 15.5 28.0003 15.1654 28.1602C15.142 28.1016 15.1185 28.0429 15.0951 27.9844C15.6101 25.315 16.1608 22.6548 16.7473 20.0039C16.8527 19.8655 16.9816 19.7717 17.1339 19.7227ZM4.83042 20.918C6.04256 20.8444 6.74562 21.4069 6.93959 22.6055C6.64864 24.0285 5.80497 24.5324 4.40858 24.1172C3.47424 23.4615 3.27504 22.6294 3.81098 21.6211C4.09062 21.2888 4.43043 21.0544 4.83042 20.918ZM25.5707 20.918C27.7503 20.9062 29.9298 20.918 32.1091 20.9531C32.2719 21.0311 32.3773 21.1601 32.4255 21.3398C32.4605 21.5495 32.4722 21.7605 32.4606 21.9727C30.9139 21.9727 29.3672 21.9727 27.8204 21.9727C27.8204 22.3945 27.8204 22.8164 27.8204 23.2383C29.6485 23.2265 31.4765 23.2383 33.3043 23.2734C33.3864 23.3555 33.4683 23.4375 33.5504 23.5195C33.5973 25.0664 33.5973 26.6133 33.5504 28.1602C33.2048 27.9981 32.8416 27.8926 32.4606 27.8438C30.1641 27.8086 27.8674 27.7969 25.5707 27.8086C25.5707 26.2851 25.5707 24.7617 25.5707 23.2383C25.9456 23.2383 26.3206 23.2383 26.6956 23.2383C26.6956 22.8164 26.6956 22.3945 26.6956 21.9727C26.3206 21.9727 25.9456 21.9727 25.5707 21.9727C25.5707 21.6211 25.5707 21.2695 25.5707 20.918ZM18.4698 22.043C19.8525 22.043 21.2351 22.043 22.6178 22.043C22.6178 22.793 22.6178 23.5429 22.6178 24.293C21.0945 24.293 19.5712 24.293 18.0479 24.293C18.1975 23.5447 18.3382 22.7948 18.4698 22.043ZM3.63522 25.1367C4.5293 25.625 5.44328 25.6719 6.37715 25.2773C6.53933 26.2799 6.66822 27.2877 6.76383 28.3008C6.92352 29.3587 7.40396 30.2376 8.2051 30.9375C8.72065 31.336 9.23628 31.7344 9.75183 32.1328C9.8137 32.2282 9.83718 32.3336 9.82214 32.4492C9.42371 32.4492 9.02536 32.4492 8.62694 32.4492C8.62694 32.8477 8.62694 33.2461 8.62694 33.6445C9.02536 33.6445 9.42371 33.6445 9.82214 33.6445C9.82214 34.0195 9.82214 34.3946 9.82214 34.7695C8.4627 34.7813 7.10341 34.7695 5.74439 34.7344C5.07522 34.6224 4.48934 34.3411 3.98675 33.8906C3.19704 33.1479 2.45883 32.3627 1.77211 31.5352C0.916754 29.9761 1.0105 28.4761 2.05333 27.0352C2.59711 26.4099 3.12441 25.7771 3.63522 25.1367ZM16.7824 29.0039C22.0336 28.9705 27.2832 29.0057 32.5309 29.1094C34.4187 29.7797 35.0866 31.0805 34.5347 33.0117C34.0891 34.0024 33.3274 34.5766 32.2497 34.7344C26.8575 34.8034 21.4673 34.78 16.0794 34.6641C14.5289 34.0955 13.8376 32.9823 14.0053 31.3242C14.4139 29.9187 15.3396 29.1452 16.7824 29.0039ZM17.2043 30.7617C17.8907 30.757 18.3243 31.0851 18.5049 31.7461C18.4921 32.6495 18.0351 33.0597 17.1339 32.9766C16.3148 32.6384 16.0922 32.0642 16.466 31.2539C16.6768 31.0262 16.9229 30.8622 17.2043 30.7617ZM20.6492 30.7617C21.8137 30.8418 22.2004 31.4277 21.8093 32.5195C21.3287 33.0645 20.778 33.1465 20.1571 32.7656C19.5206 31.9018 19.6846 31.2339 20.6492 30.7617ZM24.1645 30.7617C24.8201 30.7493 25.2536 31.0539 25.4652 31.6758C25.4862 32.6158 25.0292 33.0493 24.0942 32.9766C23.349 32.687 23.1029 32.1597 23.356 31.3945C23.5447 31.0726 23.8142 30.8617 24.1645 30.7617ZM27.6095 30.7617C28.7749 30.8438 29.1615 31.4297 28.7696 32.5195C28.295 33.0725 27.7442 33.1545 27.1174 32.7656C26.5014 31.9132 26.6655 31.2452 27.6095 30.7617ZM31.1248 30.7617C31.7842 30.7542 32.2177 31.0589 32.4255 31.6758C32.3853 32.8391 31.8112 33.2258 30.703 32.8359C30.158 32.3553 30.0761 31.8045 30.4569 31.1836C30.6568 30.9964 30.8794 30.8557 31.1248 30.7617Z" fill="white"/>
<path opacity="0.946" fill-rule="evenodd" clip-rule="evenodd" d="M17.4855 20.8477C19.5949 20.8477 21.7043 20.8477 23.8137 20.8477C23.8137 22.4179 23.8137 23.9883 23.8137 25.5586C21.4699 25.5586 19.1261 25.5586 16.7824 25.5586C16.8347 23.9611 17.0691 22.3908 17.4855 20.8477ZM18.4699 22.043C18.3383 22.7947 18.1977 23.5447 18.048 24.293C19.5715 24.293 21.0949 24.293 22.6183 24.293C22.6183 23.5429 22.6183 22.793 22.6183 22.043C21.2355 22.043 19.8527 22.043 18.4699 22.043Z" fill="white"/>
<path opacity="0.891" fill-rule="evenodd" clip-rule="evenodd" d="M26.6252 24.293C27.4221 24.293 28.219 24.293 29.0159 24.293C29.0159 24.7148 29.0159 25.1367 29.0159 25.5586C28.219 25.5586 27.4221 25.5586 26.6252 25.5586C26.6252 25.1367 26.6252 24.7148 26.6252 24.293Z" fill="white"/>
<path opacity="0.891" fill-rule="evenodd" clip-rule="evenodd" d="M30.1405 24.293C30.9374 24.293 31.7343 24.293 32.5311 24.293C32.5311 24.7148 32.5311 25.1367 32.5311 25.5586C31.7343 25.5586 30.9374 25.5586 30.1405 25.5586C30.1405 25.1367 30.1405 24.7148 30.1405 24.293Z" fill="white"/>
<path opacity="0.942" fill-rule="evenodd" clip-rule="evenodd" d="M16.8527 29.5664C17.7502 29.4398 18.5119 29.6976 19.1377 30.3399C19.9052 29.5522 20.8075 29.353 21.8444 29.7422C22.1266 29.8833 22.3844 30.059 22.6178 30.2696C23.5711 29.4582 24.6022 29.3527 25.7113 29.9532C25.8401 30.082 25.9691 30.211 26.0979 30.3399C26.9233 29.5219 27.8724 29.3461 28.9453 29.8125C29.1811 29.9304 29.392 30.0827 29.5781 30.2696C30.7422 29.3341 31.9023 29.3341 33.0582 30.2696C33.7429 31.1668 33.8366 32.1277 33.3394 33.1524C32.6164 34.1434 31.6672 34.4598 30.4921 34.1016C30.1589 33.9439 29.8542 33.7446 29.5781 33.5039C28.4207 34.5314 27.2607 34.5314 26.0979 33.5039C24.9379 34.5293 23.7778 34.5293 22.6178 33.5039C21.4594 34.5286 20.2993 34.5286 19.1377 33.5039C17.8546 34.574 16.636 34.5037 15.4817 33.293C14.7477 31.967 14.9703 30.8303 16.1497 29.8828C16.3882 29.7689 16.6225 29.6635 16.8527 29.5664ZM17.2042 30.7618C16.9229 30.8622 16.6768 31.0263 16.466 31.2539C16.0922 32.0642 16.3148 32.6384 17.1339 32.9766C18.035 33.0598 18.492 32.6496 18.5049 31.7461C18.3243 31.0851 17.8907 30.757 17.2042 30.7618ZM20.6492 30.7618C19.6846 31.2339 19.5205 31.9019 20.1571 32.7657C20.778 33.1465 21.3287 33.0646 21.8093 32.5196C22.2004 31.4278 21.8137 30.8418 20.6492 30.7618ZM24.1645 30.7618C23.8142 30.8617 23.5446 31.0727 23.356 31.3946C23.1029 32.1597 23.349 32.687 24.0942 32.9766C25.0292 33.0494 25.4862 32.6158 25.4652 31.6758C25.2536 31.054 24.8201 30.7493 24.1645 30.7618ZM27.6095 30.7618C26.6654 31.2452 26.5014 31.9132 27.1174 32.7657C27.7442 33.1545 28.295 33.0725 28.7696 32.5196C29.1615 31.4297 28.7748 30.8438 27.6095 30.7618ZM31.1248 30.7618C30.8794 30.8558 30.6568 30.9964 30.4569 31.1836C30.0761 31.8046 30.158 32.3553 30.703 32.836C31.8111 33.2259 32.3853 32.8391 32.4255 31.6758C32.2177 31.0589 31.7842 30.7542 31.1248 30.7618Z" fill="white"/>
</g>
<defs>
<clipPath id="clip0_1059_29964">
<rect width="35.9859" height="36" fill="white"/>
</clipPath>
</defs>
</svg>
