<svg width="36" height="36" viewBox="0 0 36 36" fill="none" xmlns="http://www.w3.org/2000/svg">
<g clip-path="url(#clip0_1059_30015)">
<path opacity="0.941" fill-rule="evenodd" clip-rule="evenodd" d="M36.0823 23.8711C36.0823 24.4805 36.0823 25.0898 36.0823 25.6992C35.9045 25.9586 35.6702 26.1578 35.3793 26.2969C31.5593 26.3438 27.7393 26.3438 23.9194 26.2969C23.5693 26.0964 23.4756 25.8034 23.6382 25.418C23.7085 25.3594 23.7788 25.3008 23.8491 25.2422C27.5518 25.207 31.2546 25.1953 34.9574 25.207C34.9574 24.9258 34.9574 24.6445 34.9574 24.3633C30.1766 24.3633 25.3958 24.3633 20.615 24.3633C20.615 24.6445 20.615 24.9258 20.615 25.207C21.1545 25.1954 21.6936 25.207 22.2321 25.2422C22.4976 25.45 22.5796 25.7195 22.4781 26.0508C22.3928 26.1597 22.2873 26.2417 22.1617 26.2969C21.529 26.3438 20.8962 26.3438 20.2635 26.2969C19.848 26.1858 19.6019 25.9163 19.5253 25.4883C19.4623 24.9436 19.4857 24.4046 19.5956 23.8711C19.6733 23.6294 19.8256 23.4536 20.0526 23.3437C20.3736 23.2517 20.7017 23.2166 21.0369 23.2383C20.6952 21.5057 21.3983 20.7674 23.146 21.0234C24.5639 19.6054 25.9817 18.1875 27.3995 16.7695C27.4347 14.8243 27.4464 12.8791 27.4347 10.9336C25.6301 10.9336 23.8257 10.9336 22.0211 10.9336C22.0329 11.9651 22.0211 12.9964 21.986 14.0273C21.8336 14.461 21.5407 14.7539 21.1072 14.9062C19.4432 14.9531 17.7794 14.9531 16.1154 14.9062C15.566 14.7085 15.2496 14.3217 15.1663 13.7461C15.1312 12.8089 15.1194 11.8714 15.1312 10.9336C14.1938 10.9336 13.2563 10.9336 12.3189 10.9336C12.5016 17.848 12.7008 24.762 12.9165 31.6758C13.4267 31.7973 13.954 31.8793 14.4984 31.9219C15.1663 32.1211 15.5999 32.5547 15.7991 33.2227C15.9314 33.9749 15.9314 34.7249 15.7991 35.4727C15.7063 35.6124 15.5775 35.6944 15.4124 35.7187C13.2095 35.7656 11.0065 35.7656 8.80363 35.7187C8.51073 35.6495 8.37012 35.462 8.38179 35.1562C8.3678 34.926 8.46152 34.762 8.66301 34.6641C10.6783 34.6289 12.6937 34.6172 14.7093 34.6289C14.721 34.2532 14.7093 33.8782 14.6742 33.5039C14.5687 33.3047 14.4164 33.1523 14.2172 33.0469C13.0138 32.9668 11.8069 32.9316 10.5964 32.9414C9.36312 32.9321 8.13277 32.9673 6.90537 33.0469C6.67839 33.1568 6.52606 33.3326 6.44838 33.5742C6.41327 33.925 6.40156 34.2766 6.41322 34.6289C6.64874 34.6173 6.88309 34.629 7.11628 34.6641C7.49123 34.9922 7.49123 35.3203 7.11628 35.6484C6.6534 35.757 6.18469 35.7804 5.71017 35.7187C5.59904 35.669 5.49358 35.6105 5.39379 35.543C5.31506 35.1638 5.27991 34.7771 5.28833 34.3828C5.17458 32.6801 5.97138 31.8247 7.67873 31.8164C7.87685 24.8549 8.08777 17.894 8.31148 10.9336C7.21 10.9336 6.10857 10.9336 5.00711 10.9336C4.97581 11.5946 4.64772 12.0281 4.02282 12.2344C3.03854 12.2813 2.05426 12.2813 1.06998 12.2344C0.622536 12.1027 0.294441 11.8332 0.0856934 11.4258C0.0856934 9.85549 0.0856934 8.28513 0.0856934 6.71484C0.192503 6.53762 0.30968 6.36184 0.437223 6.1875C0.58982 6.07597 0.753867 5.98222 0.929364 5.90625C1.98395 5.85937 3.03854 5.85937 4.09313 5.90625C4.64531 6.09547 4.94997 6.48219 5.00711 7.06641C6.17887 7.06641 7.35061 7.06641 8.5224 7.06641C8.69444 4.88429 8.89369 2.70461 9.12 0.527344C9.18574 0.344395 9.31461 0.238926 9.50668 0.210938C10.0222 0.164062 10.5379 0.164062 11.0534 0.210938C16.803 2.4649 22.5446 4.73834 28.2784 7.03125C28.7471 7.05466 29.2158 7.07815 29.6845 7.10156C29.7548 7.13672 29.8251 7.17187 29.8954 7.20703C30.6202 8.15463 31.3584 9.09211 32.11 10.0195C32.2919 10.365 32.2333 10.658 31.9343 10.8984C30.8331 10.9336 29.7316 10.9453 28.6299 10.9336C28.6182 12.9025 28.6299 14.8712 28.665 16.8398C30.0594 18.2343 31.4539 19.6289 32.8482 21.0234C34.5632 20.805 35.2429 21.5433 34.8871 23.2383C35.4162 23.2098 35.8147 23.4207 36.0823 23.8711ZM10.1394 1.30078C10.2332 1.30078 10.3269 1.30078 10.4207 1.30078C10.608 3.22032 10.772 5.1422 10.9128 7.06641C10.491 7.06641 10.0691 7.06641 9.6473 7.06641C9.82819 5.14634 9.99229 3.22447 10.1394 1.30078ZM11.6159 1.65234C16.1374 3.4444 20.6604 5.23737 25.1849 7.03125C22.7008 7.05466 20.2166 7.07815 17.7325 7.10156C17.3347 7.23016 17.2057 7.49974 17.3458 7.91016C17.3809 8.03904 17.463 8.12109 17.5919 8.15625C21.4821 8.17966 25.3724 8.20315 29.2626 8.22656C29.6441 8.75489 30.0424 9.27049 30.4578 9.77344C21.9743 9.80859 13.4907 9.82033 5.00711 9.80859C5.00711 9.26951 5.00711 8.73049 5.00711 8.19141C8.66308 8.20315 12.319 8.19141 15.9748 8.15625C16.1037 8.12109 16.1857 8.03904 16.2209 7.91016C16.3609 7.49974 16.232 7.23016 15.8342 7.10156C14.5689 7.06641 13.3034 7.05466 12.0377 7.06641C11.914 5.26043 11.7734 3.45575 11.6159 1.65234ZM1.28089 6.99609C2.14193 6.97347 2.99731 6.9969 3.84706 7.06641C3.89393 8.37893 3.89393 9.69138 3.84706 11.0039C3.81191 11.0391 3.77675 11.0742 3.7416 11.1094C2.90431 11.1671 2.07235 11.1554 1.24574 11.0742C1.1881 9.70966 1.19982 8.35031 1.28089 6.99609ZM9.43638 10.9336C9.85885 10.9219 10.2807 10.9337 10.7019 10.9687C10.2598 11.5367 9.82623 12.1109 9.40123 12.6914C9.40502 12.1064 9.41676 11.5205 9.43638 10.9336ZM16.2561 10.9336C17.8028 10.9336 19.3495 10.9336 20.8962 10.9336C20.908 11.8714 20.8962 12.8089 20.8611 13.7461C20.1164 13.7926 19.3665 13.8161 18.6113 13.8164C17.8561 13.8161 17.1062 13.7926 16.3615 13.7461C16.26 12.8137 16.2248 11.8763 16.2561 10.9336ZM11.1237 12.2695C11.2546 13.2397 11.2897 14.2241 11.2292 15.2227C10.7396 14.8553 10.2592 14.4804 9.78791 14.0977C10.2349 13.487 10.6802 12.8776 11.1237 12.2695ZM9.29577 15.2227C9.80113 15.5808 10.2933 15.9558 10.7722 16.3477C10.2819 17.0606 9.77814 17.7637 9.26061 18.457C9.23805 17.3788 9.24979 16.3006 9.29577 15.2227ZM11.2643 17.6133C11.3199 17.6913 11.355 17.785 11.3698 17.8945C11.3921 18.8443 11.4273 19.7935 11.4753 20.7422C11.4518 20.918 11.4284 21.0937 11.4049 21.2695C10.8054 20.8223 10.1961 20.3887 9.57699 19.9687C10.1487 19.1877 10.7112 18.4026 11.2643 17.6133ZM27.3644 18.3867C27.4343 19.2648 27.4578 20.1555 27.4347 21.0586C26.5438 21.0703 25.6533 21.0586 24.7631 21.0234C25.6444 20.1538 26.5115 19.2749 27.3644 18.3867ZM28.6299 18.457C29.5063 19.2983 30.3733 20.1537 31.2312 21.0234C30.3644 21.0586 29.4973 21.0703 28.6299 21.0586C28.6299 20.1914 28.6299 19.3242 28.6299 18.457ZM9.15516 21.1289C9.79121 21.518 10.4006 21.9516 10.9831 22.4297C10.3386 23.2149 9.69419 24 9.0497 24.7852C9.04302 23.5645 9.07817 22.3457 9.15516 21.1289ZM22.1617 22.1836C26.0286 22.1836 29.8954 22.1836 33.7622 22.1836C33.7622 22.5352 33.7622 22.8867 33.7622 23.2383C29.8954 23.2383 26.0286 23.2383 22.1617 23.2383C22.1617 22.8867 22.1617 22.5352 22.1617 22.1836ZM11.4753 23.5898C11.5901 24.9841 11.6487 26.3903 11.651 27.8086C10.9065 27.2663 10.1683 26.7156 9.43638 26.1562C10.1578 25.3298 10.8374 24.4744 11.4753 23.5898ZM8.94424 27.3164C9.64441 27.7609 10.3241 28.2414 10.9831 28.7578C10.2767 29.6432 9.56195 30.5221 8.83878 31.3945C8.85755 30.0357 8.8927 28.6764 8.94424 27.3164ZM11.6862 29.707C11.7561 30.3974 11.7795 31.1006 11.7565 31.8164C11.1701 31.8281 10.5843 31.8164 9.99883 31.7812C10.6028 31.1191 11.1653 30.4277 11.6862 29.707Z" fill="white"/>
</g>
<defs>
<clipPath id="clip0_1059_30015">
<rect width="35.9859" height="36" fill="white"/>
</clipPath>
</defs>
</svg>
