<svg width="36" height="36" viewBox="0 0 36 36" fill="none" xmlns="http://www.w3.org/2000/svg">
<path d="M29.9251 4.0498H6.07505C4.9586 4.0498 4.05005 4.95813 4.05005 6.0748V14.6248C4.05005 15.7415 4.9586 16.6498 6.07505 16.6498H20.7001C20.8194 16.6498 20.9339 16.6024 21.0182 16.518C21.1026 16.4336 21.15 16.3192 21.15 16.1998C21.15 16.0805 21.1026 15.966 21.0182 15.8816C20.9339 15.7972 20.8194 15.7498 20.7001 15.7498H8.32505V13.0498C8.32505 12.5535 8.7287 12.1498 9.22505 12.1498H20.475C20.5944 12.1498 20.7089 12.1024 20.7932 12.018C20.8776 11.9336 20.925 11.8192 20.925 11.6998C20.925 11.5805 20.8776 11.466 20.7932 11.3816C20.7089 11.2972 20.5944 11.2498 20.475 11.2498H9.22505C8.23257 11.2498 7.42505 12.0573 7.42505 13.0498V15.7498H6.07505C5.45472 15.7498 4.95005 15.2451 4.95005 14.6248V6.0748C4.95005 5.45448 5.45472 4.9498 6.07505 4.9498H29.9251C30.5454 4.9498 31.0501 5.45448 31.0501 6.0748V9.4498C31.0501 9.56915 31.0975 9.68361 31.1819 9.768C31.2662 9.85239 31.3807 9.89981 31.5 9.89981C31.6194 9.89981 31.7339 9.85239 31.8182 9.768C31.9026 9.68361 31.9501 9.56915 31.9501 9.4498V6.0748C31.9501 4.95813 31.0415 4.0498 29.9251 4.0498Z" fill="white"/>
<path d="M9.67505 13.4996C9.5557 13.4996 9.44124 13.547 9.35685 13.6314C9.27246 13.7158 9.22505 13.8303 9.22505 13.9496C9.22505 14.069 9.27246 14.1834 9.35685 14.2678C9.44124 14.3522 9.5557 14.3996 9.67505 14.3996H20.25C20.3694 14.3996 20.4839 14.3522 20.5682 14.2678C20.6526 14.1834 20.7 14.069 20.7 13.9496C20.7 13.8303 20.6526 13.7158 20.5682 13.6314C20.4839 13.547 20.3694 13.4996 20.25 13.4996H9.67505ZM8.32505 5.84961C7.8287 5.84961 7.42505 6.25326 7.42505 6.74961V7.87461C7.42505 8.37096 7.8287 8.77461 8.32505 8.77461H12.375C12.8714 8.77461 13.275 8.37096 13.275 7.87461V6.74961C13.275 6.25326 12.8714 5.84961 12.375 5.84961H8.32505ZM8.32505 7.87461V6.74961H12.375L12.3755 7.87461H8.32505ZM28.5751 7.19961C28.5751 6.82746 28.2722 6.52461 27.9 6.52461C27.5279 6.52461 27.225 6.82746 27.225 7.19961C27.225 7.57176 27.5279 7.87461 27.9 7.87461C28.2722 7.87461 28.5751 7.57176 28.5751 7.19961ZM25.65 7.87461C26.0222 7.87461 26.3251 7.57176 26.3251 7.19961C26.3251 6.82746 26.0222 6.52461 25.65 6.52461C25.2779 6.52461 24.975 6.82746 24.975 7.19961C24.975 7.57176 25.2779 7.87461 25.65 7.87461ZM24.0751 7.19961C24.0751 6.82746 23.7722 6.52461 23.4 6.52461C23.0279 6.52461 22.725 6.82746 22.725 7.19961C22.725 7.57176 23.0279 7.87461 23.4 7.87461C23.7722 7.87461 24.0751 7.57176 24.0751 7.19961Z" fill="white"/>
<path d="M31.9501 13.7245C31.9501 11.6212 30.6928 9.74331 28.7467 8.94051C28.6784 8.91229 28.6041 8.90136 28.5305 8.90869C28.4569 8.91601 28.3862 8.94136 28.3248 8.98249C28.2633 9.02362 28.2129 9.07927 28.1781 9.14451C28.1433 9.20975 28.125 9.28257 28.125 9.35653V13.4995H25.425V9.35631C25.4251 9.28235 25.4068 9.20953 25.372 9.14429C25.3372 9.07905 25.2868 9.0234 25.2253 8.98227C25.1639 8.94113 25.0932 8.91578 25.0196 8.90846C24.946 8.90114 24.8717 8.91207 24.8034 8.94028C23.8545 9.32914 23.0429 9.99193 22.4724 10.844C21.9018 11.6962 21.5981 12.699 21.6 13.7245C21.5981 14.698 21.8718 15.6522 22.3894 16.4768C22.907 17.3014 23.6474 17.9626 24.525 18.384V19.5745H21.5321C21.0663 19.5732 20.6049 19.6643 20.1746 19.8426C19.7443 20.0208 19.3536 20.2826 19.0251 20.6128C18.8584 20.7805 18.66 20.9134 18.4415 21.0039C18.223 21.0944 17.9888 21.1406 17.7523 21.14H16.65V20.4745C16.65 19.9781 16.2464 19.5745 15.75 19.5745H4.50005C4.3807 19.5745 4.26624 19.6219 4.18185 19.7063C4.09746 19.7907 4.05005 19.9051 4.05005 20.0245C4.05005 20.1438 4.09746 20.2583 4.18185 20.3427C4.26624 20.427 4.3807 20.4745 4.50005 20.4745H15.75V28.5745H4.50005C4.3807 28.5745 4.26624 28.6219 4.18185 28.7063C4.09746 28.7907 4.05005 28.9051 4.05005 29.0245C4.05005 29.1438 4.09746 29.2583 4.18185 29.3427C4.26624 29.427 4.3807 29.4745 4.50005 29.4745H15.75C16.2464 29.4745 16.65 29.0708 16.65 28.5745V27.8995H17.7431C18.2239 27.8995 18.6759 28.0867 19.0254 28.4361C19.3538 28.7663 19.7445 29.0281 20.1747 29.2064C20.605 29.3846 21.0664 29.4757 21.5321 29.4745H24.525V29.6378C24.525 30.8551 25.448 31.8685 26.6261 31.9445C26.6767 31.9479 26.7271 31.9495 26.7773 31.9495C27.351 31.9495 27.8917 31.7364 28.3136 31.3411C28.5377 31.1303 28.7165 30.8759 28.8388 30.5936C28.9612 30.3113 29.0245 30.0069 29.025 29.6992V29.4742H29.475C30.2196 29.4742 30.8251 28.8688 30.8251 28.1242V22.2745C30.8251 21.6798 30.4383 21.1749 29.9032 20.9951C29.916 20.8981 29.9251 20.8 29.9251 20.6995V20.4745C29.9251 19.9781 29.5214 19.5745 29.025 19.5745V18.384C29.9027 17.9625 30.6431 17.3013 31.1607 16.4768C31.6783 15.6522 31.952 14.698 31.9501 13.7245ZM21.5321 28.5745C20.8256 28.5745 20.1612 28.2993 19.6522 27.7903C19.4021 27.5388 19.1046 27.3394 18.7769 27.2036C18.4492 27.0679 18.0978 26.9985 17.7431 26.9995H16.65V22.04H17.7523C18.4737 22.04 19.1516 21.759 19.6615 21.2491C19.9066 21.0028 20.1981 20.8075 20.5192 20.6745C20.8403 20.5415 21.1846 20.4735 21.5321 20.4745H29.025V20.6995C29.025 21.444 28.4196 22.0495 27.675 22.0495H24.975C24.8557 22.0495 24.7412 22.0969 24.6569 22.1813C24.5725 22.2657 24.525 22.3801 24.525 22.4995C24.525 23.7401 23.5157 24.7495 22.275 24.7495C21.7698 24.7513 21.2789 24.5813 20.883 24.2673C20.8366 24.2307 20.7834 24.2036 20.7265 24.1875C20.6697 24.1715 20.6102 24.1668 20.5515 24.1737C20.4928 24.1807 20.4361 24.1991 20.3845 24.228C20.3329 24.2568 20.2875 24.2956 20.2509 24.342C20.2144 24.3884 20.1873 24.4415 20.1712 24.4984C20.1552 24.5553 20.1505 24.6148 20.1574 24.6735C20.1643 24.7322 20.1828 24.7889 20.2116 24.8405C20.2405 24.892 20.2792 24.9374 20.3256 24.974C20.88 25.4138 21.5674 25.652 22.275 25.6495C23.1561 25.6495 23.9529 25.2847 24.525 24.6997V28.5745H21.5321ZM28.125 29.6995C28.1258 29.8843 28.0882 30.0672 28.0147 30.2368C27.9412 30.4064 27.8334 30.5589 27.698 30.6847C27.5632 30.8118 27.4035 30.9095 27.2291 30.9718C27.0546 31.0341 26.8692 31.0595 26.6844 31.0465C25.9783 31.0009 25.425 30.3821 25.425 29.6378V22.9495H26.1V28.1245C26.1 28.869 26.7055 29.4745 27.4501 29.4745H28.125V29.6995ZM29.9251 22.2745V28.1245C29.9251 28.3726 29.7232 28.5745 29.475 28.5745H27.4501C27.2019 28.5745 27 28.3726 27 28.1245V22.9495H27.675C28.4965 22.9495 29.2143 22.5055 29.6071 21.8465C29.6989 21.8745 29.7792 21.9312 29.8365 22.0082C29.8937 22.0852 29.9247 22.1785 29.9251 22.2745ZM28.4034 17.6764C28.321 17.7104 28.2506 17.768 28.201 17.8421C28.1515 17.9162 28.125 18.0033 28.125 18.0924V19.5745H25.425V18.0926C25.4251 18.0035 25.3986 17.9164 25.3491 17.8423C25.2995 17.7683 25.2291 17.7106 25.1467 17.6766C24.3628 17.3554 23.6923 16.8079 23.2209 16.104C22.7495 15.4001 22.4986 14.5716 22.5 13.7245C22.5 12.2226 23.2763 10.86 24.525 10.0896V13.4995C24.525 13.9958 24.9287 14.3995 25.425 14.3995H28.125C28.6214 14.3995 29.025 13.9958 29.025 13.4995V10.0894C30.2738 10.8598 31.0501 12.2224 31.0501 13.7242C31.0516 14.5714 30.8007 15.3999 30.3292 16.1038C29.8578 16.8077 29.1873 17.3552 28.4034 17.6764Z" fill="white"/>
</svg>
