<svg width="36" height="36" viewBox="0 0 36 36" fill="none" xmlns="http://www.w3.org/2000/svg">
<g clip-path="url(#clip0_1059_30023)">
<path opacity="0.941" fill-rule="evenodd" clip-rule="evenodd" d="M20.5115 -0.0351562C25.1517 -0.0351562 29.7919 -0.0351562 34.4321 -0.0351562C35.3227 0.246094 35.9085 0.832029 36.1897 1.72266C36.1897 2.09765 36.1897 2.47266 36.1897 2.84766C35.8388 3.95955 35.0771 4.56893 33.9048 4.67578C33.8814 13.3008 33.8579 21.9258 33.8345 30.5508C33.2008 33.5166 31.408 35.3213 28.4561 35.9648C27.8233 35.9648 27.1906 35.9648 26.5578 35.9648C23.5063 35.3387 21.6901 33.4872 21.1091 30.4102C21.0857 29.0742 21.0622 27.7383 21.0388 26.4023C18.4099 27.0379 15.9492 26.6395 13.6567 25.207C13.367 25.4263 13.0975 25.6724 12.8482 25.9453C13.0357 26.1328 13.2231 26.3203 13.4106 26.5078C10.2561 29.6509 7.11581 32.8032 3.98963 35.9648C3.6381 35.9648 3.28658 35.9648 2.93505 35.9648C1.52893 35.543 0.614951 34.6289 0.193115 33.2227C0.193115 32.8711 0.193115 32.5195 0.193115 32.168C3.35445 29.0415 6.50649 25.9009 9.64926 22.7461C9.83677 22.9336 10.0242 23.1211 10.2117 23.3086C10.4846 23.0593 10.7307 22.7898 10.9499 22.5C9.3172 19.8197 9.02424 16.9954 10.0711 14.0273C10.1497 13.7914 10.2552 13.5688 10.3875 13.3594C9.76498 12.8188 9.13223 12.2915 8.48921 11.7773C7.25082 12.4649 6.16107 12.2773 5.21999 11.2148C4.64605 10.1559 4.71635 9.14808 5.43091 8.19141C6.58855 7.25527 7.74861 7.25527 8.91105 8.19141C10.4344 7.38281 11.9576 6.57422 13.4809 5.76562C13.4113 3.77278 14.3721 2.81184 16.3635 2.88281C17.5438 3.20404 18.1531 3.97747 18.1914 5.20312C18.172 6.32447 17.6329 7.07449 16.5744 7.45312C15.6314 7.70077 14.8229 7.47809 14.1488 6.78516C12.6307 7.64402 11.0957 8.47603 9.5438 9.28125C9.54352 9.81141 9.48495 10.3387 9.36804 10.8633C9.90707 11.3086 10.446 11.7539 10.9851 12.1992C13.5259 8.80087 16.8889 7.51184 21.074 8.33203C21.0857 7.11302 21.074 5.8943 21.0388 4.67578C19.616 4.50674 18.8543 3.70987 18.7539 2.28516C18.815 1.10619 19.4008 0.332755 20.5115 -0.0351562ZM20.8631 1.16016C25.2924 1.14844 29.7217 1.16016 34.1509 1.19531C34.9689 1.58704 35.1681 2.1847 34.7485 2.98828C34.5792 3.16098 34.38 3.28988 34.1509 3.375C29.7216 3.42188 25.2923 3.42188 20.8631 3.375C20.3202 3.21678 20.0156 2.85351 19.9491 2.28516C20.0233 1.711 20.328 1.33599 20.8631 1.16016ZM15.7307 4.04297C16.8049 4.19103 17.1682 4.77696 16.8205 5.80078C16.1877 6.45703 15.555 6.45703 14.9222 5.80078C14.5869 4.925 14.8564 4.33906 15.7307 4.04297ZM22.2692 4.67578C25.7376 4.67578 29.206 4.67578 32.6744 4.67578C32.6979 6.41079 32.6744 8.14514 32.6041 9.87891C30.0252 8.76776 27.6466 9.09591 25.4681 10.8633C24.55 9.98121 23.5071 9.27809 22.3395 8.75391C22.2692 7.39533 22.2458 6.03596 22.2692 4.67578ZM7.01279 8.68359C8.0858 8.83069 8.449 9.41667 8.10253 10.4414C7.46978 11.0976 6.83702 11.0976 6.20427 10.4414C5.8655 9.57227 6.135 8.98636 7.01279 8.68359ZM17.7696 9.31641C21.348 9.08402 24.0547 10.4903 25.8899 13.5352C27.357 16.6061 27.1226 19.5358 25.1869 22.3242C22.5645 25.3385 19.3656 26.1706 15.5901 24.8203C12.4886 23.3103 10.848 20.8259 10.6687 17.3672C10.8746 13.7192 12.6556 11.1879 16.0119 9.77344C16.5982 9.58591 17.1841 9.43362 17.7696 9.31641ZM29.3701 10.4414C30.4481 10.4122 31.4558 10.6582 32.3932 11.1797C32.7826 11.4899 32.7592 11.7712 32.3229 12.0234C31.0762 12.7048 29.7638 12.8688 28.3858 12.5156C27.6853 12.341 27.0056 12.1067 26.3469 11.8125C27.2383 11.0853 28.2459 10.6283 29.3701 10.4414ZM17.9805 11.6367C19.047 11.5402 20.0782 11.6808 21.074 12.0586C21.0974 15.598 21.074 19.137 21.0037 22.6758C18.0601 23.6983 15.6814 22.9483 13.8676 20.4258C12.9939 18.9617 12.7947 17.4149 13.27 15.7852C14.0394 16.3437 14.7659 16.9531 15.4495 17.6133C14.9873 19.02 15.4091 20.063 16.715 20.7422C17.7998 21.0924 18.7255 20.8463 19.4921 20.0039C20.1654 18.878 20.0834 17.8116 19.246 16.8047C18.6107 16.2767 17.8843 16.0892 17.0665 16.2422C16.7639 16.3057 16.4943 16.4346 16.258 16.6289C15.5638 16.0048 14.849 15.4072 14.1137 14.8359C13.9923 14.7383 13.8985 14.6211 13.8325 14.4844C14.7855 12.9103 16.1682 11.9611 17.9805 11.6367ZM22.2692 12.832C24.3873 14.6244 25.0084 16.851 24.1323 19.5117C23.7342 20.472 23.1249 21.269 22.3043 21.9023C22.2692 18.879 22.2574 15.8555 22.2692 12.832ZM32.6041 13.2539C32.674 13.827 32.6974 14.4129 32.6744 15.0117C31.5027 15.0117 30.3309 15.0117 29.1591 15.0117C29.1591 15.4336 29.1591 15.8555 29.1591 16.2773C30.3309 16.2773 31.5027 16.2773 32.6744 16.2773C32.6744 16.6289 32.6744 16.9805 32.6744 17.332C31.1511 17.332 29.6279 17.332 28.1046 17.332C28.0629 15.9867 27.7935 14.6977 27.296 13.4648C29.1026 14.1662 30.8719 14.0959 32.6041 13.2539ZM17.4181 17.4023C18.2719 17.4476 18.7054 17.8929 18.7187 18.7383C18.4112 19.5988 17.837 19.8449 16.9962 19.4766C16.366 18.8902 16.3426 18.2808 16.9259 17.6484C17.0964 17.5631 17.2605 17.4812 17.4181 17.4023ZM28.0343 18.5977C29.581 18.5977 31.1277 18.5977 32.6744 18.5977C32.6744 18.9492 32.6744 19.3008 32.6744 19.6523C31.5027 19.6523 30.3309 19.6523 29.1591 19.6523C29.1591 20.0742 29.1591 20.4961 29.1591 20.918C30.3309 20.918 31.5027 20.918 32.6744 20.918C32.6744 21.2695 32.6744 21.6211 32.6744 21.9727C31.1277 21.9727 29.581 21.9727 28.0343 21.9727C28.0343 22.3945 28.0343 22.8164 28.0343 23.2383C29.581 23.2383 31.1277 23.2383 32.6744 23.2383C32.6744 23.5898 32.6744 23.9414 32.6744 24.293C31.5027 24.293 30.3309 24.293 29.1591 24.293C29.1591 24.7148 29.1591 25.1367 29.1591 25.5586C30.3309 25.5586 31.5027 25.5586 32.6744 25.5586C32.6744 25.9102 32.6744 26.2617 32.6744 26.6133C31.1277 26.6133 29.581 26.6133 28.0343 26.6133C28.0343 27.0352 28.0343 27.457 28.0343 27.8789C29.581 27.8789 31.1277 27.8789 32.6744 27.8789C32.8747 29.4132 32.6287 30.8663 31.9362 32.2383C30.3968 34.4547 28.3228 35.193 25.7142 34.4531C23.685 33.6189 22.5484 32.1071 22.3043 29.918C22.2574 28.6289 22.2574 27.3398 22.3043 26.0508C25.5173 24.5701 27.4272 22.0858 28.0343 18.5977ZM11.7233 23.5195C11.9927 23.8431 12.2974 24.1361 12.6373 24.3984C12.4146 24.6211 12.192 24.8437 11.9694 25.0664C11.6764 24.7734 11.3835 24.4805 11.0905 24.1875C11.3158 23.974 11.5267 23.7514 11.7233 23.5195ZM9.61411 24.5039C10.303 25.1577 10.9826 25.8256 11.653 26.5078C11.3132 26.8476 10.9733 27.1875 10.6335 27.5273C9.96564 26.8594 9.29773 26.1914 8.62982 25.5234C8.97221 25.1928 9.30033 24.853 9.61411 24.5039ZM7.71585 26.4023C8.4047 27.0561 9.08435 27.7241 9.75472 28.4062C7.64554 30.5156 5.53636 32.625 3.42719 34.7344C2.29057 34.5352 1.62267 33.8672 1.42347 32.7305C3.53509 30.6304 5.63256 28.521 7.71585 26.4023Z" fill="white"/>
<path opacity="0.94" fill-rule="evenodd" clip-rule="evenodd" d="M18.1913 10.371C21.7715 10.3259 24.1971 11.9665 25.468 15.2929C26.3198 18.8567 25.2066 21.6106 22.1285 23.5546C20.1299 24.5212 18.091 24.615 16.0119 23.8359C12.972 22.3388 11.5776 19.8896 11.8287 16.4882C12.3483 13.5076 14.0474 11.5505 16.9258 10.6171C17.3559 10.5262 17.7777 10.4441 18.1913 10.371ZM17.9804 11.6366C16.1681 11.961 14.7854 12.9102 13.8324 14.4843C13.8984 14.621 13.9922 14.7382 14.1136 14.8359C14.8489 15.4071 15.5637 16.0047 16.2579 16.6288C16.4942 16.4346 16.7638 16.3056 17.0664 16.2421C17.8842 16.0891 18.6106 16.2766 19.2459 16.8046C20.0833 17.8115 20.1653 18.8779 19.492 20.0038C18.7255 20.8463 17.7997 21.0923 16.7149 20.7421C15.4091 20.063 14.9872 19.02 15.4494 17.6132C14.7658 16.953 14.0394 16.3436 13.2699 15.7851C12.7946 17.4148 12.9938 18.9617 13.8675 20.4257C15.6814 22.9482 18.06 23.6983 21.0036 22.6757C21.0739 19.137 21.0973 15.5979 21.0739 12.0585C20.0781 11.6807 19.0469 11.5401 17.9804 11.6366ZM22.2691 12.832C22.2573 15.8555 22.2691 18.8789 22.3042 21.9023C23.1248 21.2689 23.7341 20.472 24.1322 19.5116C25.0083 16.8509 24.3873 14.6243 22.2691 12.832ZM17.418 17.4023C17.2604 17.4811 17.0963 17.5631 16.9258 17.6484C16.3425 18.2807 16.3659 18.8901 16.9961 19.4765C17.8369 19.8448 18.4111 19.5987 18.7186 18.7382C18.7053 17.8928 18.2718 17.4475 17.418 17.4023Z" fill="white"/>
<path opacity="0.933" fill-rule="evenodd" clip-rule="evenodd" d="M23.3941 27.8086C23.7925 27.8086 24.1909 27.8086 24.5894 27.8086C24.5643 28.6088 24.5995 29.4057 24.6948 30.1992C24.8535 30.7915 25.1465 31.3071 25.5737 31.7461C25.3434 32.0821 25.0739 32.3868 24.7651 32.6602C24.0445 31.9925 23.5992 31.1722 23.4292 30.1992C23.3941 29.4027 23.3823 28.6058 23.3941 27.8086Z" fill="white"/>
<path opacity="0.873" fill-rule="evenodd" clip-rule="evenodd" d="M26.4875 32.3086C26.8342 32.3893 27.1858 32.4362 27.5422 32.4492C27.5422 32.8477 27.5422 33.2461 27.5422 33.6445C27.0275 33.6896 26.5353 33.6076 26.0657 33.3984C26.1996 33.0315 26.3402 32.6682 26.4875 32.3086Z" fill="white"/>
<path opacity="0.873" fill-rule="evenodd" clip-rule="evenodd" d="M2.86478 32.4492C3.36419 32.358 3.64544 32.5572 3.70853 33.0469C3.62476 33.57 3.32007 33.7575 2.79447 33.6094C2.52538 33.3768 2.44335 33.0839 2.54838 32.7305C2.64659 32.6201 2.75206 32.5263 2.86478 32.4492Z" fill="white"/>
</g>
<defs>
<clipPath id="clip0_1059_30023">
<rect width="35.9859" height="36" fill="white"/>
</clipPath>
</defs>
</svg>
