<svg width="65" height="64" viewBox="0 0 65 64" fill="none" xmlns="http://www.w3.org/2000/svg">
<path d="M43.3899 58.7397C39.8109 58.7397 36.1619 58.529 32.8964 57.0401C24.7751 53.337 19.8901 45.7319 19.8901 37.1669C19.8901 26.9313 28.0009 18.6356 38.0058 18.6356C44.0304 18.6356 49.366 21.646 52.659 26.2737H58.5436C54.6912 18.6866 46.9405 13.5044 38.0058 13.5044C25.2309 13.5044 14.8743 24.0987 14.8743 37.1669C14.8743 48.8835 20.9053 58.6114 33.4164 62.6904C36.4143 63.6677 39.5905 63.8709 42.739 63.8709H64.7769V58.7397H43.3899Z" fill="#F55B1F"/>
<path d="M37 38H29V30H37V38Z" fill="#121315"/>
<path d="M47 38H39V30H47V38Z" fill="#F55B1F"/>
<path d="M37 49H29V40H37V49Z" fill="#F55B1F"/>
<path d="M47 49H39V40H47V49Z" fill="#121315"/>
<path d="M0 37.0084L34.8477 0V7.78309L7.22777 37.0084H0Z" fill="#F55B1F"/>
<path d="M60.3059 26.2738L34.8477 0V7.78309L53.0781 26.2738H60.3059Z" fill="#F55B1F"/>
<path d="M30.8571 7.09668H37.8406L41.8311 12.6727V18.2488H25.8689V12.6727L30.8571 7.09668Z" fill="#F55B1F"/>
</svg>
